<svg width="126" height="36" viewBox="0 0 126 36" fill="none" xmlns="http://www.w3.org/2000/svg">
<path d="M0 8.88672H23.1532V13.8995H7.24113V20.1654H21.0315V24.7984H7.24113V36.0013H0V8.88672ZM27.3399 8.88672H51.9691V13.8995H34.581V19.7097H50.5392V24.3427H34.581V30.9885H52.3381V36.0013H27.3399V8.88672ZM64.4883 21.1527H72.4214C74.0816 21.1527 75.3265 20.849 76.157 20.2413C76.9874 19.6339 77.4027 18.6465 77.4027 17.2793C77.4027 15.9628 76.9874 15.0134 76.157 14.4312C75.3265 13.8235 74.0816 13.5198 72.4214 13.5198H64.4883V21.1527ZM57.247 8.88672H75.0036C76.4799 8.88672 77.8021 9.08925 78.9705 9.49433C80.1696 9.87413 81.1841 10.4058 82.0145 11.0893C82.8758 11.7728 83.5215 12.5704 83.9518 13.4818C84.4128 14.3679 84.6434 15.3299 84.6434 16.3679C84.6434 17.9629 84.2281 19.3426 83.3984 20.5072C82.5987 21.6718 81.2764 22.5579 79.4315 23.1655V23.2415C80.3236 23.444 81.0617 23.7603 81.6459 24.1908C82.23 24.596 82.7061 25.0895 83.0755 25.6719C83.4442 26.2289 83.7055 26.8491 83.8594 27.5326C84.0441 28.2162 84.1673 28.8998 84.2281 29.5833C84.2589 30.0138 84.2897 30.5201 84.3205 31.1023C84.3513 31.6847 84.3978 32.2796 84.4587 32.8872C84.551 33.4949 84.6741 34.0771 84.8281 34.634C85.0128 35.1657 85.2741 35.6214 85.612 36.0013H78.3713C77.9711 35.1404 77.7255 34.1152 77.6332 32.9251C77.5408 31.7353 77.4027 30.5961 77.2179 29.5073C76.9717 28.0897 76.4491 27.0517 75.6494 26.3934C74.8504 25.7351 73.5432 25.4061 71.7291 25.4061H64.4883V36.0013H57.247V8.88672ZM90.5324 8.88672H100.725L108.427 27.5326H108.52L115.807 8.88672H126V36.0013H119.22V16.7856H119.128L111.056 36.0013H105.476L97.4044 16.9755H97.3121V36.0013H90.5324V8.88672Z" fill="#1B1B1A"/>
<path d="M74.7921 5.40757L74.6711 4.86541H74.6432C74.4542 5.10407 74.2652 5.26623 74.0769 5.35196C73.8901 5.43536 73.6538 5.47707 73.3682 5.47707C72.9945 5.47707 72.7024 5.3786 72.4905 5.18168C72.2785 4.98474 72.1719 4.70672 72.1719 4.34761C72.1719 3.57376 72.7797 3.16832 73.9939 3.13124L74.6367 3.10692V2.88103C74.6367 2.59142 74.5745 2.37827 74.4499 2.24156C74.3253 2.10256 74.1263 2.03306 73.8521 2.03306C73.6517 2.03306 73.4612 2.06317 73.2815 2.12342C73.104 2.18364 72.9372 2.25084 72.7804 2.32498L72.5907 1.85581C72.7818 1.75386 72.9902 1.67394 73.2157 1.61602C73.4419 1.55809 73.6653 1.52913 73.8865 1.52913C74.3454 1.52913 74.6861 1.63107 74.9095 1.83496C75.1329 2.03884 75.2446 2.3632 75.2446 2.80804V5.40757H74.7921ZM73.5099 4.97316C73.8578 4.97316 74.1306 4.87931 74.3289 4.69166C74.5294 4.50169 74.6296 4.23291 74.6296 3.88539V3.54133L74.0697 3.56565C73.6345 3.58188 73.3166 3.65138 73.1154 3.77418C72.9178 3.89696 72.8183 4.09044 72.8183 4.35455C72.8183 4.5538 72.8785 4.70672 72.998 4.8133C73.1205 4.91987 73.2908 4.97316 73.5099 4.97316ZM78.7389 2.11992H77.0458V5.40757H76.4237V1.59169H78.7389V2.11992ZM81.2904 5.47707C80.7807 5.47707 80.3891 5.29289 80.1149 4.92451H80.0734L80.087 5.06698C80.1056 5.24771 80.1149 5.40873 80.1149 5.55006V7.11742H79.4928V1.59169H80.0046L80.087 2.11298H80.1149C80.2624 1.90446 80.4327 1.75386 80.6268 1.66119C80.8201 1.56852 81.0434 1.52218 81.2968 1.52218C81.7901 1.52218 82.1724 1.69479 82.4445 2.04C82.7186 2.3829 82.8561 2.86713 82.8561 3.49268C82.8561 4.11592 82.7186 4.60246 82.4445 4.9523C82.1703 5.30216 81.7858 5.47707 81.2904 5.47707ZM81.1866 2.04695C80.8107 2.04695 80.5387 2.15352 80.3705 2.36669C80.2051 2.57984 80.1199 2.91462 80.1149 3.37105V3.49268C80.1149 4.00933 80.2001 4.38351 80.3705 4.61521C80.5416 4.84456 80.8179 4.95926 81.2002 4.95926C81.5181 4.95926 81.7658 4.82951 81.9433 4.57003C82.123 4.31052 82.2132 3.9491 82.2132 3.48572C82.2132 3.02003 82.123 2.66439 81.9433 2.4188C81.7658 2.17091 81.5138 2.04695 81.1866 2.04695ZM87.1451 3.49268C87.1451 4.11592 86.9883 4.60246 86.6755 4.9523C86.3619 5.30216 85.9288 5.47707 85.3754 5.47707C85.0325 5.47707 84.7282 5.39714 84.4633 5.23728C84.1984 5.07509 83.9944 4.8434 83.8512 4.54221C83.7087 4.24102 83.6372 3.89118 83.6372 3.49268C83.6372 2.87176 83.7911 2.3887 84.1003 2.04348C84.4089 1.69595 84.842 1.52218 85.3997 1.52218C85.9345 1.52218 86.3583 1.69943 86.6719 2.05389C86.9876 2.40607 87.1451 2.88565 87.1451 3.49268ZM84.28 3.49268C84.28 3.97227 84.3731 4.33718 84.56 4.58739C84.749 4.83531 85.0267 4.95926 85.3926 4.95926C85.7548 4.95926 86.0297 4.83531 86.2187 4.58739C86.4077 4.33718 86.5022 3.97227 86.5022 3.49268C86.5022 3.01309 86.407 2.65281 86.2151 2.41186C86.0269 2.16859 85.7491 2.04695 85.3825 2.04695C84.6473 2.04695 84.28 2.52886 84.28 3.49268ZM88.7559 5.40757H88.1338V1.59169H91.3411V5.40757H90.7189V2.12689H88.7559V5.40757ZM95.4404 5.40757H94.8082V2.11298H93.6914C93.6269 2.94706 93.5396 3.60274 93.4286 4.08001C93.3205 4.55496 93.1781 4.90365 93.0005 5.12608C92.8251 5.34617 92.6003 5.45622 92.3261 5.45622C92.1765 5.45622 92.067 5.44 91.9983 5.40757V4.93841C92.0462 4.95693 92.1107 4.9662 92.1915 4.9662C92.445 4.9662 92.6469 4.69745 92.7965 4.15994C92.9483 3.62241 93.0671 2.76633 93.1523 1.59169H95.4404V5.40757ZM98.987 5.40757L98.866 4.86541H98.8381C98.6491 5.10407 98.4601 5.26623 98.2711 5.35196C98.0849 5.43536 97.8487 5.47707 97.5623 5.47707C97.1893 5.47707 96.8965 5.3786 96.6846 5.18168C96.4727 4.98474 96.3667 4.70672 96.3667 4.34761C96.3667 3.57376 96.9738 3.16832 98.1887 3.13124L98.8309 3.10692V2.88103C98.8309 2.59142 98.7693 2.37827 98.6448 2.24156C98.5202 2.10256 98.3204 2.03306 98.047 2.03306C97.8458 2.03306 97.6561 2.06317 97.4764 2.12342C97.2988 2.18364 97.132 2.25084 96.9753 2.32498L96.7848 1.85581C96.9767 1.75386 97.185 1.67394 97.4105 1.61602C97.6368 1.55809 97.8601 1.52913 98.0813 1.52913C98.5395 1.52913 98.881 1.63107 99.1044 1.83496C99.3277 2.03884 99.4394 2.3632 99.4394 2.80804V5.40757H98.987ZM97.7041 4.97316C98.052 4.97316 98.3255 4.87931 98.5238 4.69166C98.7242 4.50169 98.8245 4.23291 98.8245 3.88539V3.54133L98.2646 3.56565C97.8286 3.58188 97.5108 3.65138 97.3103 3.77418C97.112 3.89696 97.0132 4.09044 97.0132 4.35455C97.0132 4.5538 97.0733 4.70672 97.1929 4.8133C97.3153 4.91987 97.4857 4.97316 97.7041 4.97316ZM103.238 2.11992H101.997V5.40757H101.382V2.11992H100.158V1.59169H103.238V2.11992ZM108.098 3.49962C108.098 4.06725 107.932 4.52485 107.6 4.87238C107.271 5.2199 106.811 5.41684 106.221 5.46317V7.11742H105.613V5.46317C105.032 5.41452 104.575 5.21643 104.24 4.86891C103.907 4.52136 103.739 4.06494 103.739 3.49962C103.739 2.92041 103.905 2.46051 104.237 2.11992C104.569 1.77705 105.034 1.58242 105.633 1.53608V0H106.221V1.53608C106.804 1.59401 107.262 1.79672 107.596 2.14427C107.931 2.49179 108.098 2.94357 108.098 3.49962ZM104.389 3.49962C104.389 4.38236 104.804 4.86657 105.633 4.9523V2.05389C105.2 2.09791 104.885 2.24272 104.686 2.48833C104.488 2.73158 104.389 3.0687 104.389 3.49962ZM107.455 3.49962C107.455 2.63079 107.044 2.15121 106.221 2.06085V4.9523C107.044 4.86194 107.455 4.37772 107.455 3.49962ZM112.391 3.49268C112.391 4.11592 112.234 4.60246 111.921 4.9523C111.607 5.30216 111.174 5.47707 110.621 5.47707C110.278 5.47707 109.973 5.39714 109.708 5.23728C109.444 5.07509 109.239 4.8434 109.096 4.54221C108.954 4.24102 108.882 3.89118 108.882 3.49268C108.882 2.87176 109.037 2.3887 109.345 2.04348C109.654 1.69595 110.087 1.52218 110.645 1.52218C111.18 1.52218 111.603 1.69943 111.917 2.05389C112.233 2.40607 112.391 2.88565 112.391 3.49268ZM109.525 3.49268C109.525 3.97227 109.619 4.33718 109.805 4.58739C109.994 4.83531 110.272 4.95926 110.638 4.95926C111 4.95926 111.276 4.83531 111.465 4.58739C111.654 4.33718 111.748 3.97227 111.748 3.49268C111.748 3.01309 111.652 2.65281 111.461 2.41186C111.272 2.16859 110.994 2.04695 110.628 2.04695C109.892 2.04695 109.525 2.52886 109.525 3.49268ZM115.177 5.47707C114.667 5.47707 114.275 5.29289 114.001 4.92451H113.959L113.974 5.06698C113.992 5.24771 114.001 5.40873 114.001 5.55006V7.11742H113.379V1.59169H113.891L113.974 2.11298H114.001C114.148 1.90446 114.319 1.75386 114.513 1.66119C114.706 1.56852 114.93 1.52218 115.184 1.52218C115.676 1.52218 116.059 1.69479 116.331 2.04C116.605 2.3829 116.742 2.86713 116.742 3.49268C116.742 4.11592 116.605 4.60246 116.331 4.9523C116.056 5.30216 115.672 5.47707 115.177 5.47707ZM115.073 2.04695C114.697 2.04695 114.426 2.15352 114.257 2.36669C114.091 2.57984 114.006 2.91462 114.001 3.37105V3.49268C114.001 4.00933 114.086 4.38351 114.257 4.61521C114.428 4.84456 114.704 4.95926 115.086 4.95926C115.404 4.95926 115.653 4.82951 115.829 4.57003C116.009 4.31052 116.099 3.9491 116.099 3.48572C116.099 3.02003 116.009 2.66439 115.829 2.4188C115.653 2.17091 115.4 2.04695 115.073 2.04695ZM119.753 4.80981C119.822 4.55728 119.909 4.29663 120.015 4.02787L121.004 1.59169H121.806V5.40757H121.246V2.26242C121.165 2.51496 121.071 2.78024 120.963 3.05827L120.015 5.40757H119.511L118.563 3.04437C118.518 2.93317 118.472 2.81153 118.425 2.67947C118.382 2.5474 118.338 2.40838 118.294 2.26242V5.40757H117.734V1.59169H118.512L119.469 3.93405C119.554 4.15182 119.649 4.44375 119.753 4.80981ZM125.359 5.40757L125.238 4.86541H125.21C125.021 5.10407 124.833 5.26623 124.644 5.35196C124.457 5.43536 124.221 5.47707 123.935 5.47707C123.562 5.47707 123.269 5.3786 123.057 5.18168C122.845 4.98474 122.739 4.70672 122.739 4.34761C122.739 3.57376 123.346 3.16832 124.561 3.13124L125.204 3.10692V2.88103C125.204 2.59142 125.141 2.37827 125.017 2.24156C124.892 2.10256 124.693 2.03306 124.419 2.03306C124.218 2.03306 124.028 2.06317 123.848 2.12342C123.671 2.18364 123.504 2.25084 123.347 2.32498L123.157 1.85581C123.349 1.75386 123.557 1.67394 123.783 1.61602C124.009 1.55809 124.232 1.52913 124.453 1.52913C124.912 1.52913 125.253 1.63107 125.476 1.83496C125.7 2.03884 125.811 2.3632 125.811 2.80804V5.40757H125.359ZM124.077 4.97316C124.425 4.97316 124.697 4.87931 124.896 4.69166C125.096 4.50169 125.196 4.23291 125.196 3.88539V3.54133L124.637 3.56565C124.201 3.58188 123.883 3.65138 123.682 3.77418C123.484 3.89696 123.385 4.09044 123.385 4.35455C123.385 4.5538 123.445 4.70672 123.565 4.8133C123.687 4.91987 123.858 4.97316 124.077 4.97316Z" fill="#1B1B1A"/>
</svg>
